<svg xmlns="http://www.w3.org/2000/svg" width="398" height="279">
  <path style="fill:#000000; stroke:none;" d="M0 0L0 279L398 279L398 0L0 0z"/>
  <path style="fill:#8c8e8f; stroke:none;" d="M119 57L120 58L119 57z"/>
  <path style="fill:#d6d9db; stroke:none;" d="M120 57C125.315 70.8183 137.575 83.8145 145.975 96C152.185 105.01 158.498 113.955 164.656 123C168.764 129.035 172.608 136.058 178 141C164.581 155.021 152.223 170.277 139.576 185C133.418 192.168 124.991 199.392 121 208C124.704 208 129.537 208.783 132.91 206.972C138.955 203.728 144.143 195.159 148.576 190C155.461 181.985 162.353 173.977 169.282 166C173.718 160.892 178.873 156.036 182 150C186.798 153.703 189.655 159.104 193.141 164C199.952 173.565 206.331 183.436 213.141 193C216.217 197.319 219.308 204.369 224.093 206.972C227.671 208.918 233.068 208 237 208L267 208C264.086 200.312 258.242 193.771 253.67 187C243.923 172.567 233.859 158.34 223.975 144C220.523 138.993 217.074 133.974 213.576 129C212.01 126.774 209.277 123.969 209.727 121C210.648 114.918 220.092 107.529 224 103C236.834 88.1289 252.577 73.6636 263 57C258.781 57 253.725 56.226 250.004 58.6034C244.04 62.4136 239.607 69.7538 234.95 75C224.361 86.9293 210.988 99.1778 203 113C192.762 100.996 184.221 87.0385 175.344 74C172.171 69.3385 168 59.9596 162.674 57.6034C158.91 55.938 153.039 57 149 57L120 57z"/>
  <path style="fill:#a7a9ab; stroke:none;" d="M250 57L251 58L250 57z"/>
  <path style="fill:#565758; stroke:none;" d="M263 57L264 58L263 57z"/>
  <path style="fill:#858688; stroke:none;" d="M164 58L165 59L164 58z"/>
  <path style="fill:#929495; stroke:none;" d="M249 58L250 59L249 58z"/>
  <path style="fill:#757677; stroke:none;" d="M262 58L263 59L262 58z"/>
  <path style="fill:#363637; stroke:none;" d="M120 59L121 60L120 59z"/>
  <path style="fill:#424344; stroke:none;" d="M165 59L166 60L165 59z"/>
  <path style="fill:#717374; stroke:none;" d="M248 59L249 60L248 59z"/>
  <path style="fill:#929495; stroke:none;" d="M261 59L262 60L261 59z"/>
  <path style="fill:#7c7e7f; stroke:none;" d="M121 60L122 61L121 60z"/>
  <path style="fill:#505152; stroke:none;" d="M247 60L248 61L247 60z"/>
  <path style="fill:#acaeb0; stroke:none;" d="M260 60L261 61L260 60z"/>
  <path style="fill:#9a9d9e; stroke:none;" d="M166 61L167 62L166 61z"/>
  <path style="fill:#393a3a; stroke:none;" d="M246 61L247 62L246 61z"/>
  <path style="fill:#2b2b2c; stroke:none;" d="M122 62L123 63L122 62z"/>
  <path style="fill:#535455; stroke:none;" d="M167 62L168 63L167 62z"/>
  <path style="fill:#6c6e6f; stroke:none;" d="M123 63L124 64L123 63z"/>
  <path style="fill:#2f3030; stroke:none;" d="M258 63L259 64L258 63z"/>
  <path style="fill:#abaeaf; stroke:none;" d="M124 64L125 65L124 64z"/>
  <path style="fill:#a5a8a9; stroke:none;" d="M168 64L169 65L168 64z"/>
  <path style="fill:#444546; stroke:none;" d="M257 64L258 65L257 64z"/>
  <path style="fill:#656667; stroke:none;" d="M169 65L170 66L169 65z"/>
  <path style="fill:#9d9fa1; stroke:none;" d="M243 65L244 66L243 65z"/>
  <path style="fill:#656667; stroke:none;" d="M256 65L257 66L256 65z"/>
  <path style="fill:#5c5e5e; stroke:none;" d="M125 66L126 67L125 66z"/>
  <path style="fill:#868889; stroke:none;" d="M242 66L243 67L242 66M255 66L256 67L255 66z"/>
  <path style="fill:#a0a3a4; stroke:none;" d="M126 67L127 68L126 67z"/>
  <path style="fill:#414242; stroke:none;" d="M137 67L138 68L137 67z"/>
  <path style="fill:#000000; stroke:none;" d="M138 67C142.248 78.0432 151.993 88.3752 158.859 98C172.348 116.909 185.751 135.904 198.975 155C205.708 164.721 212.546 174.379 219.421 184C222.454 188.244 225.292 194.184 229.465 197.397C234.124 200.983 244.38 199 250 199C243.057 186.812 233.854 175.43 225.709 164C211.043 143.418 196.413 122.776 182.025 102C176.674 94.2733 171.11 86.6992 165.72 79C163.215 75.4225 160.761 70.2321 156.826 68.0278C152.041 65.3472 143.356 67 138 67z"/>
  <path style="fill:#545556; stroke:none;" d="M157 67L158 68L157 67z"/>
  <path style="fill:#666869; stroke:none;" d="M241 67L242 68L241 67z"/>
  <path style="fill:#9d9fa1; stroke:none;" d="M254 67L255 68L254 67z"/>
  <path style="fill:#959799; stroke:none;" d="M158 68L159 69L158 68z"/>
  <path style="fill:#757778; stroke:none;" d="M171 68L172 69L171 68z"/>
  <path style="fill:#494a4b; stroke:none;" d="M240 68L241 69L240 68z"/>
  <path style="fill:#4c4d4e; stroke:none;" d="M127 69L128 70L127 69z"/>
  <path style="fill:#a1a3a5; stroke:none;" d="M138 69L139 70L138 69z"/>
  <path style="fill:#313132; stroke:none;" d="M172 69L173 70L172 69z"/>
  <path style="fill:#2f3030; stroke:none;" d="M239 69L240 70L239 69z"/>
  <path style="fill:#949697; stroke:none;" d="M128 70L129 71L128 70z"/>
  <path style="fill:#5e5f60; stroke:none;" d="M139 70L140 71L139 70z"/>
  <path style="fill:#353636; stroke:none;" d="M159 70L160 71L159 70z"/>
  <path style="fill:#787a7b; stroke:none;" d="M160 71L161 72L160 71z"/>
  <path style="fill:#868889; stroke:none;" d="M173 71L174 72L173 71z"/>
  <path style="fill:#393a3a; stroke:none;" d="M251 71L252 72L251 71z"/>
  <path style="fill:#3c3c3d; stroke:none;" d="M129 72L130 73L129 72z"/>
  <path style="fill:#424344; stroke:none;" d="M174 72L175 73L174 72z"/>
  <path style="fill:#acaeb0; stroke:none;" d="M237 72L238 73L237 72z"/>
  <path style="fill:#505152; stroke:none;" d="M250 72L251 73L250 72z"/>
  <path style="fill:#7e8081; stroke:none;" d="M130 73L131 74L130 73z"/>
  <path style="fill:#77797a; stroke:none;" d="M141 73L142 74L141 73z"/>
  <path style="fill:#989a9b; stroke:none;" d="M236 73L237 74L236 73z"/>
  <path style="fill:#717374; stroke:none;" d="M249 73L250 74L249 73z"/>
  <path style="fill:#353636; stroke:none;" d="M142 74L143 75L142 74z"/>
  <path style="fill:#5e5f60; stroke:none;" d="M162 74L163 75L162 74z"/>
  <path style="fill:#9a9d9e; stroke:none;" d="M175 74L176 75L175 74z"/>
  <path style="fill:#787a7b; stroke:none;" d="M235 74L236 75L235 74z"/>
  <path style="fill:#929495; stroke:none;" d="M248 74L249 75L248 74z"/>
  <path style="fill:#2b2b2c; stroke:none;" d="M131 75L132 76L131 75z"/>
  <path style="fill:#a1a3a5; stroke:none;" d="M163 75L164 76L163 75z"/>
  <path style="fill:#565758; stroke:none;" d="M176 75L177 76L176 75M234 75L235 76L234 75z"/>
  <path style="fill:#a7a9ab; stroke:none;" d="M247 75L248 76L247 75z"/>
  <path style="fill:#6e6f71; stroke:none;" d="M132 76L133 77L132 76z"/>
  <path style="fill:#959799; stroke:none;" d="M143 76L144 77L143 76z"/>
  <path style="fill:#3e3f40; stroke:none;" d="M233 76L234 77L233 76z"/>
  <path style="fill:#515353; stroke:none;" d="M144 77L145 78L144 77z"/>
  <path style="fill:#414242; stroke:none;" d="M164 77L165 78L164 77z"/>
  <path style="fill:#abaeaf; stroke:none;" d="M177 77L178 78L177 77z"/>
  <path style="fill:#2a2b2b; stroke:none;" d="M232 77L233 78L232 77z"/>
  <path style="fill:#828485; stroke:none;" d="M165 78L166 79L165 78z"/>
  <path style="fill:#666869; stroke:none;" d="M178 78L179 79L178 78z"/>
  <path style="fill:#2f3030; stroke:none;" d="M245 78L246 79L245 78z"/>
  <path style="fill:#5e5f60; stroke:none;" d="M134 79L135 80L134 79z"/>
  <path style="fill:#acaeb0; stroke:none;" d="M145 79L146 80L145 79z"/>
  <path style="fill:#444546; stroke:none;" d="M244 79L245 80L244 79z"/>
  <path style="fill:#a0a3a4; stroke:none;" d="M135 80L136 81L135 80z"/>
  <path style="fill:#6b6c6d; stroke:none;" d="M146 80L147 81L146 80z"/>
  <path style="fill:#2a2b2b; stroke:none;" d="M166 80L167 81L166 80z"/>
  <path style="fill:#a2a4a6; stroke:none;" d="M230 80L231 81L230 80z"/>
  <path style="fill:#616364; stroke:none;" d="M243 80L244 81L243 80z"/>
  <path style="fill:#2a2b2b; stroke:none;" d="M147 81L148 82L147 81z"/>
  <path style="fill:#686a6a; stroke:none;" d="M167 81L168 82L167 81z"/>
  <path style="fill:#787a7b; stroke:none;" d="M180 81L181 82L180 81z"/>
  <path style="fill:#8d8f90; stroke:none;" d="M229 81L230 82L229 81z"/>
  <path style="fill:#808283; stroke:none;" d="M242 81L243 82L242 81z"/>
  <path style="fill:#4e4f50; stroke:none;" d="M136 82L137 83L136 82z"/>
  <path style="fill:#a7a9ab; stroke:none;" d="M168 82L169 83L168 82z"/>
  <path style="fill:#363637; stroke:none;" d="M181 82L182 83L181 82z"/>
  <path style="fill:#6c6e6f; stroke:none;" d="M228 82L229 83L228 82z"/>
  <path style="fill:#9d9fa1; stroke:none;" d="M241 82L242 83L241 82z"/>
  <path style="fill:#949697; stroke:none;" d="M137 83L138 84L137 83z"/>
  <path style="fill:#848687; stroke:none;" d="M148 83L149 84L148 83z"/>
  <path style="fill:#494a4b; stroke:none;" d="M227 83L228 84L227 83z"/>
  <path style="fill:#414242; stroke:none;" d="M149 84L150 85L149 84z"/>
  <path style="fill:#4e4f50; stroke:none;" d="M169 84L170 85L169 84z"/>
  <path style="fill:#898b8c; stroke:none;" d="M182 84L183 85L182 84z"/>
  <path style="fill:#343535; stroke:none;" d="M226 84L227 85L226 84z"/>
  <path style="fill:#3c3c3d; stroke:none;" d="M138 85L139 86L138 85z"/>
  <path style="fill:#8f9192; stroke:none;" d="M170 85L171 86L170 85z"/>
  <path style="fill:#424344; stroke:none;" d="M183 85L184 86L183 85z"/>
  <path style="fill:#808283; stroke:none;" d="M139 86L140 87L139 86z"/>
  <path style="fill:#a1a3a5; stroke:none;" d="M150 86L151 87L150 86z"/>
  <path style="fill:#343535; stroke:none;" d="M238 86L239 87L238 86z"/>
  <path style="fill:#5d5e5f; stroke:none;" d="M151 87L152 88L151 87z"/>
  <path style="fill:#353636; stroke:none;" d="M171 87L172 88L171 87z"/>
  <path style="fill:#9a9d9e; stroke:none;" d="M184 87L185 88L184 87z"/>
  <path style="fill:#505152; stroke:none;" d="M237 87L238 88L237 87z"/>
  <path style="fill:#2b2b2c; stroke:none;" d="M140 88L141 89L140 88z"/>
  <path style="fill:#727475; stroke:none;" d="M172 88L173 89L172 88z"/>
  <path style="fill:#58595a; stroke:none;" d="M185 88L186 89L185 88z"/>
  <path style="fill:#9d9fa1; stroke:none;" d="M223 88L224 89L223 88z"/>
  <path style="fill:#6e6f71; stroke:none;" d="M236 88L237 89L236 88z"/>
  <path style="fill:#707273; stroke:none;" d="M141 89L142 90L141 89z"/>
  <path style="fill:#808283; stroke:none;" d="M222 89L223 90L222 89z"/>
  <path style="fill:#8d8f90; stroke:none;" d="M235 89L236 90L235 89z"/>
  <path style="fill:#767879; stroke:none;" d="M153 90L154 91L153 90z"/>
  <path style="fill:#abaeaf; stroke:none;" d="M186 90L187 91L186 90z"/>
  <path style="fill:#616364; stroke:none;" d="M221 90L222 91L221 90z"/>
  <path style="fill:#a7a9ab; stroke:none;" d="M234 90L235 91L234 90z"/>
  <path style="fill:#353636; stroke:none;" d="M154 91L155 92L154 91z"/>
  <path style="fill:#58595a; stroke:none;" d="M174 91L175 92L174 91z"/>
  <path style="fill:#696a6b; stroke:none;" d="M187 91L188 92L187 91z"/>
  <path style="fill:#444546; stroke:none;" d="M220 91L221 92L220 91z"/>
  <path style="fill:#616263; stroke:none;" d="M143 92L144 93L143 92z"/>
  <path style="fill:#9b9d9f; stroke:none;" d="M175 92L176 93L175 92z"/>
  <path style="fill:#2f3030; stroke:none;" d="M219 92L220 93L219 92z"/>
  <path style="fill:#a5a8a9; stroke:none;" d="M144 93L145 94L144 93z"/>
  <path style="fill:#959799; stroke:none;" d="M155 93L156 94L155 93z"/>
  <path style="fill:#2a2b2b; stroke:none;" d="M232 93L233 94L232 93z"/>
  <path style="fill:#515252; stroke:none;" d="M156 94L157 95L156 94z"/>
  <path style="fill:#3b3c3c; stroke:none;" d="M176 94L177 95L176 94z"/>
  <path style="fill:#7a7b7d; stroke:none;" d="M189 94L190 95L189 94z"/>
  <path style="fill:#3e3f40; stroke:none;" d="M231 94L232 95L231 94z"/>
  <path style="fill:#505152; stroke:none;" d="M145 95L146 96L145 95z"/>
  <path style="fill:#7c7e7f; stroke:none;" d="M177 95L178 96L177 95z"/>
  <path style="fill:#363637; stroke:none;" d="M190 95L191 96L190 95z"/>
  <path style="fill:#a7a9ab; stroke:none;" d="M217 95L218 96L217 95z"/>
  <path style="fill:#5f6061; stroke:none;" d="M230 95L231 96L230 95z"/>
  <path style="fill:#949697; stroke:none;" d="M146 96L147 97L146 96z"/>
  <path style="fill:#a7a9ab; stroke:none;" d="M157 96L158 97L157 96z"/>
  <path style="fill:#929495; stroke:none;" d="M216 96L217 97L216 96z"/>
  <path style="fill:#808283; stroke:none;" d="M229 96L230 97L229 96z"/>
  <path style="fill:#6a6b6c; stroke:none;" d="M158 97L159 98L158 97z"/>
  <path style="fill:#8b8d8f; stroke:none;" d="M191 97L192 98L191 97z"/>
  <path style="fill:#737576; stroke:none;" d="M215 97L216 98L215 97z"/>
  <path style="fill:#989a9b; stroke:none;" d="M228 97L229 98L228 97z"/>
  <path style="fill:#3c3c3d; stroke:none;" d="M147 98L148 99L147 98z"/>
  <path style="fill:#2a2b2b; stroke:none;" d="M159 98L160 99L159 98z"/>
  <path style="fill:#626464; stroke:none;" d="M179 98L180 99L179 98z"/>
  <path style="fill:#48494a; stroke:none;" d="M192 98L193 99L192 98z"/>
  <path style="fill:#505152; stroke:none;" d="M214 98L215 99L214 98z"/>
  <path style="fill:#acaeb0; stroke:none;" d="M227 98L228 99L227 98z"/>
  <path style="fill:#828485; stroke:none;" d="M148 99L149 100L148 99z"/>
  <path style="fill:#a1a3a5; stroke:none;" d="M180 99L181 100L180 99z"/>
  <path style="fill:#393a3a; stroke:none;" d="M213 99L214 100L213 99z"/>
  <path style="fill:#838586; stroke:none;" d="M160 100L161 101L160 100z"/>
  <path style="fill:#a0a3a4; stroke:none;" d="M193 100L194 101L193 100z"/>
  <path style="fill:#313132; stroke:none;" d="M149 101L150 102L149 101z"/>
  <path style="fill:#414242; stroke:none;" d="M161 101L162 102L161 101z"/>
  <path style="fill:#474849; stroke:none;" d="M181 101L182 102L181 101z"/>
  <path style="fill:#5a5b5c; stroke:none;" d="M194 101L195 102L194 101z"/>
  <path style="fill:#343535; stroke:none;" d="M225 101L226 102L225 101z"/>
  <path style="fill:#727475; stroke:none;" d="M150 102L151 103L150 102z"/>
  <path style="fill:#868889; stroke:none;" d="M182 102L183 103L182 102z"/>
  <path style="fill:#494a4b; stroke:none;" d="M224 102L225 103L224 102z"/>
  <path style="fill:#a1a3a5; stroke:none;" d="M162 103L163 104L162 103z"/>
  <path style="fill:#abaeaf; stroke:none;" d="M195 103L196 104L195 103z"/>
  <path style="fill:#9d9fa1; stroke:none;" d="M210 103L211 104L210 103z"/>
  <path style="fill:#6b6d6e; stroke:none;" d="M223 103L224 104L223 103z"/>
  <path style="fill:#5d5e5f; stroke:none;" d="M163 104L164 105L163 104z"/>
  <path style="fill:#2f3030; stroke:none;" d="M183 104L184 105L183 104z"/>
  <path style="fill:#6b6d6e; stroke:none;" d="M196 104L197 105L196 104z"/>
  <path style="fill:#868889; stroke:none;" d="M209 104L210 105L209 104z"/>
  <path style="fill:#8d8f90; stroke:none;" d="M222 104L223 105L222 104z"/>
  <path style="fill:#626464; stroke:none;" d="M152 105L153 106L152 105z"/>
  <path style="fill:#6c6e6f; stroke:none;" d="M184 105L185 106L184 105z"/>
  <path style="fill:#2b2b2c; stroke:none;" d="M197 105L198 106L197 105z"/>
  <path style="fill:#67696a; stroke:none;" d="M208 105L209 106L208 105z"/>
  <path style="fill:#a2a4a6; stroke:none;" d="M221 105L222 106L221 105z"/>
  <path style="fill:#a5a8a9; stroke:none;" d="M153 106L154 107L153 106z"/>
  <path style="fill:#acaeb0; stroke:none;" d="M185 106L186 107L185 106z"/>
  <path style="fill:#494a4b; stroke:none;" d="M207 106L208 107L207 106z"/>
  <path style="fill:#767879; stroke:none;" d="M165 107L166 108L165 107z"/>
  <path style="fill:#7c7e7f; stroke:none;" d="M198 107L199 108L198 107z"/>
  <path style="fill:#2f3030; stroke:none;" d="M206 107L207 108L206 107z"/>
  <path style="fill:#525354; stroke:none;" d="M154 108L155 109L154 108z"/>
  <path style="fill:#353636; stroke:none;" d="M166 108L167 109L166 108z"/>
  <path style="fill:#515353; stroke:none;" d="M186 108L187 109L186 108z"/>
  <path style="fill:#363637; stroke:none;" d="M199 108L200 109L199 108z"/>
  <path style="fill:#2a2b2b; stroke:none;" d="M219 108L220 109L219 108z"/>
  <path style="fill:#9a9d9e; stroke:none;" d="M155 109L156 110L155 109z"/>
  <path style="fill:#959799; stroke:none;" d="M187 109L188 110L187 109z"/>
  <path style="fill:#3e3f40; stroke:none;" d="M218 109L219 110L218 109z"/>
  <path style="fill:#959799; stroke:none;" d="M167 110L168 111L167 110z"/>
  <path style="fill:#8e9091; stroke:none;" d="M200 110L201 111L200 110z"/>
  <path style="fill:#acaeb0; stroke:none;" d="M204 110L205 111L204 110z"/>
  <path style="fill:#565758; stroke:none;" d="M217 110L218 111L217 110z"/>
  <path style="fill:#3c3c3d; stroke:none;" d="M156 111L157 112L156 111z"/>
  <path style="fill:#505152; stroke:none;" d="M168 111L169 112L168 111z"/>
  <path style="fill:#353636; stroke:none;" d="M188 111L189 112L188 111z"/>
  <path style="fill:#4c4d4d; stroke:none;" d="M201 111L202 112L201 111z"/>
  <path style="fill:#989a9b; stroke:none;" d="M203 111L204 112L203 111z"/>
  <path style="fill:#77797a; stroke:none;" d="M216 111L217 112L216 111z"/>
  <path style="fill:#848687; stroke:none;" d="M157 112L158 113L157 112z"/>
  <path style="fill:#757778; stroke:none;" d="M189 112L190 113L189 112z"/>
  <path style="fill:#858789; stroke:none;" d="M202 112L203 113L202 112z"/>
  <path style="fill:#939596; stroke:none;" d="M215 112L216 113L215 112z"/>
  <path style="fill:#a7a9ab; stroke:none;" d="M169 113L170 114L169 113z"/>
  <path style="fill:#acaeb0; stroke:none;" d="M214 113L215 114L214 113z"/>
  <path style="fill:#313132; stroke:none;" d="M158 114L159 115L158 114z"/>
  <path style="fill:#696a6b; stroke:none;" d="M170 114L171 115L170 114z"/>
  <path style="fill:#757677; stroke:none;" d="M159 115L160 116L159 115z"/>
  <path style="fill:#2a2b2b; stroke:none;" d="M171 115L172 116L171 115z"/>
  <path style="fill:#5c5e5e; stroke:none;" d="M191 115L192 116L191 115z"/>
  <path style="fill:#9b9d9f; stroke:none;" d="M192 116L193 117L192 116z"/>
  <path style="fill:#2f3030; stroke:none;" d="M212 116L213 117L212 116z"/>
  <path style="fill:#828485; stroke:none;" d="M172 117L173 118L172 117z"/>
  <path style="fill:#494a4b; stroke:none;" d="M211 117L212 118L211 117z"/>
  <path style="fill:#656667; stroke:none;" d="M161 118L162 119L161 118z"/>
  <path style="fill:#414242; stroke:none;" d="M173 118L174 119L173 118M193 118L194 119L193 118z"/>
  <path style="fill:#686a6a; stroke:none;" d="M210 118L211 119L210 118z"/>
  <path style="fill:#a5a8a9; stroke:none;" d="M162 119L163 120L162 119z"/>
  <path style="fill:#808283; stroke:none;" d="M194 119L195 120L194 119z"/>
  <path style="fill:#868889; stroke:none;" d="M209 119L210 120L209 119z"/>
  <path style="fill:#9a9d9e; stroke:none;" d="M174 120L175 121L174 120z"/>
  <path style="fill:#9c9ea0; stroke:none;" d="M208 120L209 121L208 120z"/>
  <path style="fill:#535455; stroke:none;" d="M163 121L164 122L163 121z"/>
  <path style="fill:#5b5d5e; stroke:none;" d="M175 121L176 122L175 121z"/>
  <path style="fill:#464747; stroke:none;" d="M208 121L209 122L208 121z"/>
  <path style="fill:#9a9d9e; stroke:none;" d="M164 122L165 123L164 122z"/>
  <path style="fill:#696a6b; stroke:none;" d="M196 122L197 123L196 122z"/>
  <path style="fill:#abaeaf; stroke:none;" d="M197 123L198 124L197 123z"/>
  <path style="fill:#949697; stroke:none;" d="M209 123L210 124L209 123z"/>
  <path style="fill:#424344; stroke:none;" d="M165 124L166 125L165 124z"/>
  <path style="fill:#757778; stroke:none;" d="M177 124L178 125L177 124z"/>
  <path style="fill:#4d4e4f; stroke:none;" d="M210 124L211 125L210 124z"/>
  <path style="fill:#868889; stroke:none;" d="M166 125L167 126L166 125z"/>
  <path style="fill:#353636; stroke:none;" d="M178 125L179 126L178 125z"/>
  <path style="fill:#575959; stroke:none;" d="M198 125L199 126L198 125z"/>
  <path style="fill:#9a9d9e; stroke:none;" d="M199 126L200 127L199 126z"/>
  <path style="fill:#a0a3a4; stroke:none;" d="M211 126L212 127L211 126z"/>
  <path style="fill:#313132; stroke:none;" d="M167 127L168 128L167 127z"/>
  <path style="fill:#959799; stroke:none;" d="M179 127L180 128L179 127z"/>
  <path style="fill:#5d5e5f; stroke:none;" d="M212 127L213 128L212 127z"/>
  <path style="fill:#767879; stroke:none;" d="M168 128L169 129L168 128z"/>
  <path style="fill:#505152; stroke:none;" d="M180 128L181 129L180 128z"/>
  <path style="fill:#424344; stroke:none;" d="M200 128L201 129L200 128z"/>
  <path style="fill:#858688; stroke:none;" d="M201 129L202 130L201 129z"/>
  <path style="fill:#a7a9ab; stroke:none;" d="M181 130L182 131L181 130z"/>
  <path style="fill:#6e6f71; stroke:none;" d="M214 130L215 131L214 130z"/>
  <path style="fill:#666869; stroke:none;" d="M170 131L171 132L170 131z"/>
  <path style="fill:#696a6b; stroke:none;" d="M182 131L183 132L182 131z"/>
  <path style="fill:#2f3030; stroke:none;" d="M202 131L203 132L202 131z"/>
  <path style="fill:#2b2b2c; stroke:none;" d="M215 131L216 132L215 131z"/>
  <path style="fill:#abaeaf; stroke:none;" d="M171 132L172 133L171 132z"/>
  <path style="fill:#2a2b2b; stroke:none;" d="M183 132L184 133L183 132z"/>
  <path style="fill:#6e6f71; stroke:none;" d="M203 132L204 133L203 132z"/>
  <path style="fill:#a9abad; stroke:none;" d="M204 133L205 134L204 133z"/>
  <path style="fill:#7e8081; stroke:none;" d="M216 133L217 134L216 133z"/>
  <path style="fill:#565858; stroke:none;" d="M172 134L173 135L172 134z"/>
  <path style="fill:#828485; stroke:none;" d="M184 134L185 135L184 134z"/>
  <path style="fill:#3c3c3d; stroke:none;" d="M217 134L218 135L217 134z"/>
  <path style="fill:#9a9d9e; stroke:none;" d="M173 135L174 136L173 135z"/>
  <path style="fill:#3b3c3c; stroke:none;" d="M185 135L186 136L185 135z"/>
  <path style="fill:#565858; stroke:none;" d="M205 135L206 136L205 135z"/>
  <path style="fill:#9b9d9f; stroke:none;" d="M206 136L207 137L206 136z"/>
  <path style="fill:#949697; stroke:none;" d="M218 136L219 137L218 136z"/>
  <path style="fill:#424344; stroke:none;" d="M174 137L175 138L174 137z"/>
  <path style="fill:#9b9d9f; stroke:none;" d="M186 137L187 138L186 137z"/>
  <path style="fill:#4d4e4f; stroke:none;" d="M219 137L220 138L219 137z"/>
  <path style="fill:#898b8c; stroke:none;" d="M175 138L176 139L175 138z"/>
  <path style="fill:#555657; stroke:none;" d="M187 138L188 139L187 138z"/>
  <path style="fill:#3b3c3c; stroke:none;" d="M207 138L208 139L207 138z"/>
  <path style="fill:#7e8081; stroke:none;" d="M208 139L209 140L208 139z"/>
  <path style="fill:#a0a3a4; stroke:none;" d="M220 139L221 140L220 139z"/>
  <path style="fill:#363637; stroke:none;" d="M176 140L177 141L176 140z"/>
  <path style="fill:#acaeb0; stroke:none;" d="M188 140L189 141L188 140z"/>
  <path style="fill:#5e5f60; stroke:none;" d="M221 140L222 141L221 140z"/>
  <path style="fill:#a1a3a5; stroke:none;" d="M177 141L178 142L177 141z"/>
  <path style="fill:#67696a; stroke:none;" d="M189 141L190 142L189 141z"/>
  <path style="fill:#58595a; stroke:none;" d="M176 142L177 143L176 142z"/>
  <path style="fill:#2c2d2e; stroke:none;" d="M190 142L191 143L190 142z"/>
  <path style="fill:#666768; stroke:none;" d="M210 142L211 143L210 142z"/>
  <path style="fill:#3e3f40; stroke:none;" d="M175 143L176 144L175 143z"/>
  <path style="fill:#a7a9ab; stroke:none;" d="M211 143L212 144L211 143z"/>
  <path style="fill:#6f7071; stroke:none;" d="M223 143L224 144L223 143z"/>
  <path style="fill:#808283; stroke:none;" d="M191 144L192 145L191 144z"/>
  <path style="fill:#2b2b2c; stroke:none;" d="M224 144L225 145L224 144z"/>
  <path style="fill:#414242; stroke:none;" d="M192 145L193 146L192 145z"/>
  <path style="fill:#4e4f50; stroke:none;" d="M212 145L213 146L212 145z"/>
  <path style="fill:#8f9192; stroke:none;" d="M213 146L214 147L213 146z"/>
  <path style="fill:#808183; stroke:none;" d="M225 146L226 147L225 146z"/>
  <path style="fill:#a2a4a6; stroke:none;" d="M172 147L173 148L172 147z"/>
  <path style="fill:#9b9d9f; stroke:none;" d="M193 147L194 148L193 147z"/>
  <path style="fill:#3c3c3d; stroke:none;" d="M226 147L227 148L226 147z"/>
  <path style="fill:#8d8f90; stroke:none;" d="M171 148L172 149L171 148z"/>
  <path style="fill:#5a5b5c; stroke:none;" d="M194 148L195 149L194 148z"/>
  <path style="fill:#353636; stroke:none;" d="M214 148L215 149L214 148z"/>
  <path style="fill:#6b6d6e; stroke:none;" d="M170 149L171 150L170 149z"/>
  <path style="fill:#757778; stroke:none;" d="M215 149L216 150L215 149z"/>
  <path style="fill:#929495; stroke:none;" d="M227 149L228 150L227 149z"/>
  <path style="fill:#494a4b; stroke:none;" d="M169 150L170 151L169 150z"/>
  <path style="fill:#929495; stroke:none;" d="M182 150L183 151L182 150z"/>
  <path style="fill:#4e4f50; stroke:none;" d="M228 150L229 151L228 150z"/>
  <path style="fill:#343535; stroke:none;" d="M168 151L169 152L168 151z"/>
  <path style="fill:#a7a9ab; stroke:none;" d="M181 151L182 152L181 151z"/>
  <path style="fill:#686a6a; stroke:none;" d="M184 151L185 152L184 151z"/>
  <path style="fill:#727475; stroke:none;" d="M196 151L197 152L196 151z"/>
  <path style="fill:#abaeaf; stroke:none;" d="M185 152L186 153L185 152z"/>
  <path style="fill:#2f3030; stroke:none;" d="M197 152L198 153L197 152z"/>
  <path style="fill:#5e5f60; stroke:none;" d="M217 152L218 153L217 152z"/>
  <path style="fill:#a0a3a4; stroke:none;" d="M229 152L230 153L229 152z"/>
  <path style="fill:#a1a3a5; stroke:none;" d="M218 153L219 154L218 153z"/>
  <path style="fill:#5f6061; stroke:none;" d="M230 153L231 154L230 153z"/>
  <path style="fill:#2a2b2b; stroke:none;" d="M179 154L180 155L179 154z"/>
  <path style="fill:#575959; stroke:none;" d="M186 154L187 155L186 154z"/>
  <path style="fill:#8a8c8e; stroke:none;" d="M198 154L199 155L198 154z"/>
  <path style="fill:#9d9fa1; stroke:none;" d="M165 155L166 156L165 155z"/>
  <path style="fill:#444546; stroke:none;" d="M178 155L179 156L178 155z"/>
  <path style="fill:#9a9d9e; stroke:none;" d="M187 155L188 156L187 155z"/>
  <path style="fill:#474849; stroke:none;" d="M199 155L200 156L199 155z"/>
  <path style="fill:#414242; stroke:none;" d="M219 155L220 156L219 155z"/>
  <path style="fill:#808283; stroke:none;" d="M164 156L165 157L164 156z"/>
  <path style="fill:#626464; stroke:none;" d="M177 156L178 157L177 156z"/>
  <path style="fill:#858789; stroke:none;" d="M220 156L221 157L220 156z"/>
  <path style="fill:#6f7071; stroke:none;" d="M232 156L233 157L232 156z"/>
  <path style="fill:#626464; stroke:none;" d="M163 157L164 158L163 157z"/>
  <path style="fill:#868889; stroke:none;" d="M176 157L177 158L176 157z"/>
  <path style="fill:#424344; stroke:none;" d="M188 157L189 158L188 157z"/>
  <path style="fill:#a1a3a5; stroke:none;" d="M200 157L201 158L200 157z"/>
  <path style="fill:#2b2b2c; stroke:none;" d="M233 157L234 158L233 157z"/>
  <path style="fill:#444546; stroke:none;" d="M162 158L163 159L162 158z"/>
  <path style="fill:#9d9fa1; stroke:none;" d="M175 158L176 159L175 158z"/>
  <path style="fill:#8a8c8d; stroke:none;" d="M189 158L190 159L189 158z"/>
  <path style="fill:#636465; stroke:none;" d="M201 158L202 159L201 158z"/>
  <path style="fill:#2f3030; stroke:none;" d="M221 158L222 159L221 158M161 159L162 160L161 159z"/>
  <path style="fill:#6e6f71; stroke:none;" d="M222 159L223 160L222 159z"/>
  <path style="fill:#808183; stroke:none;" d="M234 159L235 160L234 159z"/>
  <path style="fill:#363637; stroke:none;" d="M190 160L191 161L190 160z"/>
  <path style="fill:#acaeb0; stroke:none;" d="M223 160L224 161L223 160z"/>
  <path style="fill:#3c3c3d; stroke:none;" d="M235 160L236 161L235 160z"/>
  <path style="fill:#7a7b7d; stroke:none;" d="M191 161L192 162L191 161z"/>
  <path style="fill:#7b7d7e; stroke:none;" d="M203 161L204 162L203 161z"/>
  <path style="fill:#a7a9ab; stroke:none;" d="M159 162L160 163L159 162z"/>
  <path style="fill:#393a3a; stroke:none;" d="M172 162L173 163L172 162z"/>
  <path style="fill:#3b3c3c; stroke:none;" d="M204 162L205 163L204 162z"/>
  <path style="fill:#565758; stroke:none;" d="M224 162L225 163L224 162z"/>
  <path style="fill:#949697; stroke:none;" d="M236 162L237 163L236 162z"/>
  <path style="fill:#929495; stroke:none;" d="M158 163L159 164L158 163z"/>
  <path style="fill:#505152; stroke:none;" d="M171 163L172 164L171 163z"/>
  <path style="fill:#9b9d9f; stroke:none;" d="M225 163L226 164L225 163z"/>
  <path style="fill:#4e4f50; stroke:none;" d="M237 163L238 164L237 163z"/>
  <path style="fill:#747577; stroke:none;" d="M157 164L158 165L157 164z"/>
  <path style="fill:#717374; stroke:none;" d="M170 164L171 165L170 164z"/>
  <path style="fill:#6a6b6c; stroke:none;" d="M193 164L194 165L193 164z"/>
  <path style="fill:#959799; stroke:none;" d="M205 164L206 165L205 164z"/>
  <path style="fill:#565758; stroke:none;" d="M156 165L157 166L156 165z"/>
  <path style="fill:#929495; stroke:none;" d="M169 165L170 166L169 165z"/>
  <path style="fill:#abaeaf; stroke:none;" d="M194 165L195 166L194 165z"/>
  <path style="fill:#545556; stroke:none;" d="M206 165L207 166L206 165z"/>
  <path style="fill:#3b3c3c; stroke:none;" d="M226 165L227 166L226 165z"/>
  <path style="fill:#a0a3a4; stroke:none;" d="M238 165L239 166L238 165z"/>
  <path style="fill:#393a3a; stroke:none;" d="M155 166L156 167L155 166z"/>
  <path style="fill:#a7a9ab; stroke:none;" d="M168 166L169 167L168 166z"/>
  <path style="fill:#7e8081; stroke:none;" d="M227 166L228 167L227 166z"/>
  <path style="fill:#5f6061; stroke:none;" d="M239 166L240 167L239 166z"/>
  <path style="fill:#595a5b; stroke:none;" d="M195 167L196 168L195 167z"/>
  <path style="fill:#acaeb0; stroke:none;" d="M207 167L208 168L207 167z"/>
  <path style="fill:#a0a3a4; stroke:none;" d="M196 168L197 169L196 168z"/>
  <path style="fill:#6c6e6f; stroke:none;" d="M208 168L209 169L208 168z"/>
  <path style="fill:#2f3030; stroke:none;" d="M166 169L167 170L166 169M209 169L210 170L209 169z"/>
  <path style="fill:#666768; stroke:none;" d="M229 169L230 170L229 169z"/>
  <path style="fill:#707172; stroke:none;" d="M241 169L242 170L241 169z"/>
  <path style="fill:#a2a4a6; stroke:none;" d="M152 170L153 171L152 170z"/>
  <path style="fill:#444546; stroke:none;" d="M165 170L166 171L165 170z"/>
  <path style="fill:#48494a; stroke:none;" d="M197 170L198 171L197 170z"/>
  <path style="fill:#a7a9ab; stroke:none;" d="M230 170L231 171L230 170z"/>
  <path style="fill:#2b2b2c; stroke:none;" d="M242 170L243 171L242 170z"/>
  <path style="fill:#8d8f90; stroke:none;" d="M151 171L152 172L151 171z"/>
  <path style="fill:#636465; stroke:none;" d="M164 171L165 172L164 171z"/>
  <path style="fill:#8b8d8f; stroke:none;" d="M198 171L199 172L198 171z"/>
  <path style="fill:#858688; stroke:none;" d="M210 171L211 172L210 171z"/>
  <path style="fill:#6a6b6c; stroke:none;" d="M150 172L151 173L150 172z"/>
  <path style="fill:#868889; stroke:none;" d="M163 172L164 173L163 172z"/>
  <path style="fill:#414242; stroke:none;" d="M211 172L212 173L211 172z"/>
  <path style="fill:#4e4f50; stroke:none;" d="M231 172L232 173L231 172z"/>
  <path style="fill:#808283; stroke:none;" d="M243 172L244 173L243 172z"/>
  <path style="fill:#494a4b; stroke:none;" d="M149 173L150 174L149 173z"/>
  <path style="fill:#9d9fa1; stroke:none;" d="M162 173L163 174L162 173z"/>
  <path style="fill:#363637; stroke:none;" d="M199 173L200 174L199 173z"/>
  <path style="fill:#8f9192; stroke:none;" d="M232 173L233 174L232 173z"/>
  <path style="fill:#3c3c3d; stroke:none;" d="M244 173L245 174L244 173z"/>
  <path style="fill:#343535; stroke:none;" d="M148 174L149 175L148 174z"/>
  <path style="fill:#7b7d7e; stroke:none;" d="M200 174L201 175L200 174z"/>
  <path style="fill:#a1a3a5; stroke:none;" d="M212 174L213 175L212 174z"/>
  <path style="fill:#5d5e5f; stroke:none;" d="M213 175L214 176L213 175z"/>
  <path style="fill:#353636; stroke:none;" d="M233 175L234 176L233 175z"/>
  <path style="fill:#949697; stroke:none;" d="M245 175L246 176L245 175z"/>
  <path style="fill:#2b2b2c; stroke:none;" d="M201 176L202 177L201 176z"/>
  <path style="fill:#757778; stroke:none;" d="M234 176L235 177L234 176z"/>
  <path style="fill:#4f5051; stroke:none;" d="M246 176L247 177L246 176z"/>
  <path style="fill:#393a3a; stroke:none;" d="M159 177L160 178L159 177z"/>
  <path style="fill:#6b6c6d; stroke:none;" d="M202 177L203 178L202 177z"/>
  <path style="fill:#989a9b; stroke:none;" d="M145 178L146 179L145 178z"/>
  <path style="fill:#505152; stroke:none;" d="M158 178L159 179L158 178z"/>
  <path style="fill:#abaeaf; stroke:none;" d="M203 178L204 179L203 178z"/>
  <path style="fill:#757778; stroke:none;" d="M215 178L216 179L215 178z"/>
  <path style="fill:#a5a8a9; stroke:none;" d="M247 178L248 179L247 178z"/>
  <path style="fill:#808283; stroke:none;" d="M144 179L145 180L144 179z"/>
  <path style="fill:#727475; stroke:none;" d="M157 179L158 180L157 179z"/>
  <path style="fill:#353636; stroke:none;" d="M216 179L217 180L216 179z"/>
  <path style="fill:#5e5f60; stroke:none;" d="M236 179L237 180L236 179z"/>
  <path style="fill:#606162; stroke:none;" d="M248 179L249 180L248 179M143 180L144 181L143 180z"/>
  <path style="fill:#929495; stroke:none;" d="M156 180L157 181L156 180z"/>
  <path style="fill:#5b5c5d; stroke:none;" d="M204 180L205 181L204 180z"/>
  <path style="fill:#a1a3a5; stroke:none;" d="M237 180L238 181L237 180z"/>
  <path style="fill:#444546; stroke:none;" d="M142 181L143 182L142 181z"/>
  <path style="fill:#a7a9ab; stroke:none;" d="M155 181L156 182L155 181z"/>
  <path style="fill:#a0a3a4; stroke:none;" d="M205 181L206 182L205 181z"/>
  <path style="fill:#8f9192; stroke:none;" d="M217 181L218 182L217 181z"/>
  <path style="fill:#2a2b2b; stroke:none;" d="M141 182L142 183L141 182z"/>
  <path style="fill:#4f5051; stroke:none;" d="M218 182L219 183L218 182z"/>
  <path style="fill:#414242; stroke:none;" d="M238 182L239 183L238 182z"/>
  <path style="fill:#707273; stroke:none;" d="M250 182L251 183L250 182z"/>
  <path style="fill:#4b4c4c; stroke:none;" d="M206 183L207 184L206 183z"/>
  <path style="fill:#858789; stroke:none;" d="M239 183L240 184L239 183z"/>
  <path style="fill:#313132; stroke:none;" d="M251 183L252 184L251 183z"/>
  <path style="fill:#2f3030; stroke:none;" d="M153 184L154 185L153 184z"/>
  <path style="fill:#8e9091; stroke:none;" d="M207 184L208 185L207 184z"/>
  <path style="fill:#a7a9ab; stroke:none;" d="M219 184L220 185L219 184M139 185L140 186L139 185z"/>
  <path style="fill:#444546; stroke:none;" d="M152 185L153 186L152 185z"/>
  <path style="fill:#67696a; stroke:none;" d="M220 185L221 186L220 185z"/>
  <path style="fill:#2f3030; stroke:none;" d="M240 185L241 186L240 185z"/>
  <path style="fill:#818384; stroke:none;" d="M252 185L253 186L252 185z"/>
  <path style="fill:#929495; stroke:none;" d="M138 186L139 187L138 186z"/>
  <path style="fill:#656667; stroke:none;" d="M151 186L152 187L151 186z"/>
  <path style="fill:#363637; stroke:none;" d="M208 186L209 187L208 186z"/>
  <path style="fill:#2a2b2b; stroke:none;" d="M221 186L222 187L221 186z"/>
  <path style="fill:#6e6f71; stroke:none;" d="M241 186L242 187L241 186z"/>
  <path style="fill:#3c3c3d; stroke:none;" d="M253 186L254 187L253 186z"/>
  <path style="fill:#727475; stroke:none;" d="M137 187L138 188L137 187z"/>
  <path style="fill:#868889; stroke:none;" d="M150 187L151 188L150 187z"/>
  <path style="fill:#7d7f80; stroke:none;" d="M209 187L210 188L209 187z"/>
  <path style="fill:#acaeb0; stroke:none;" d="M242 187L243 188L242 187z"/>
  <path style="fill:#505152; stroke:none;" d="M136 188L137 189L136 188z"/>
  <path style="fill:#9d9fa1; stroke:none;" d="M149 188L150 189L149 188z"/>
  <path style="fill:#808183; stroke:none;" d="M222 188L223 189L222 188z"/>
  <path style="fill:#949697; stroke:none;" d="M254 188L255 189L254 188z"/>
  <path style="fill:#393a3a; stroke:none;" d="M135 189L136 190L135 189z"/>
  <path style="fill:#2b2b2c; stroke:none;" d="M210 189L211 190L210 189z"/>
  <path style="fill:#3b3c3c; stroke:none;" d="M223 189L224 190L223 189z"/>
  <path style="fill:#565758; stroke:none;" d="M243 189L244 190L243 189z"/>
  <path style="fill:#505152; stroke:none;" d="M255 189L256 190L255 189z"/>
  <path style="fill:#6c6e6f; stroke:none;" d="M211 190L212 191L211 190z"/>
  <path style="fill:#9b9d9f; stroke:none;" d="M244 190L245 191L244 190M224 191L225 192L224 191z"/>
  <path style="fill:#a5a8a9; stroke:none;" d="M256 191L257 192L256 191z"/>
  <path style="fill:#393a3a; stroke:none;" d="M146 192L147 193L146 192z"/>
  <path style="fill:#58595a; stroke:none;" d="M225 192L226 193L225 192z"/>
  <path style="fill:#3b3c3c; stroke:none;" d="M245 192L246 193L245 192z"/>
  <path style="fill:#606162; stroke:none;" d="M257 192L258 193L257 192z"/>
  <path style="fill:#a2a4a6; stroke:none;" d="M132 193L133 194L132 193z"/>
  <path style="fill:#505152; stroke:none;" d="M145 193L146 194L145 193z"/>
  <path style="fill:#5c5e5e; stroke:none;" d="M213 193L214 194L213 193z"/>
  <path style="fill:#7d7f80; stroke:none;" d="M246 193L247 194L246 193z"/>
  <path style="fill:#868889; stroke:none;" d="M131 194L132 195L131 194z"/>
  <path style="fill:#747577; stroke:none;" d="M144 194L145 195L144 194z"/>
  <path style="fill:#a0a3a4; stroke:none;" d="M214 194L215 195L214 194z"/>
  <path style="fill:#acaeb0; stroke:none;" d="M226 194L227 195L226 194z"/>
  <path style="fill:#686a6a; stroke:none;" d="M130 195L131 196L130 195z"/>
  <path style="fill:#929495; stroke:none;" d="M143 195L144 196L143 195z"/>
  <path style="fill:#707273; stroke:none;" d="M227 195L228 196L227 195M259 195L260 196L259 195z"/>
  <path style="fill:#494a4b; stroke:none;" d="M129 196L130 197L129 196z"/>
  <path style="fill:#a7a9ab; stroke:none;" d="M142 196L143 197L142 196z"/>
  <path style="fill:#4c4d4e; stroke:none;" d="M215 196L216 197L215 196z"/>
  <path style="fill:#2f3030; stroke:none;" d="M228 196L229 197L228 196z"/>
  <path style="fill:#666768; stroke:none;" d="M248 196L249 197L248 196z"/>
  <path style="fill:#313132; stroke:none;" d="M260 196L261 197L260 196z"/>
  <path style="fill:#343535; stroke:none;" d="M128 197L129 198L128 197z"/>
  <path style="fill:#949697; stroke:none;" d="M216 197L217 198L216 197z"/>
  <path style="fill:#a7a9ab; stroke:none;" d="M249 197L250 198L249 197z"/>
  <path style="fill:#898b8c; stroke:none;" d="M229 198L230 199L229 198z"/>
  <path style="fill:#818384; stroke:none;" d="M261 198L262 199L261 198z"/>
  <path style="fill:#323233; stroke:none;" d="M140 199L141 200L140 199z"/>
  <path style="fill:#3c3d3e; stroke:none;" d="M217 199L218 200L217 199z"/>
  <path style="fill:#6b6d6e; stroke:none;" d="M230 199C235.715 201.398 243.831 200 250 200C244.285 197.602 236.169 199 230 199z"/>
  <path style="fill:#a5a8a9; stroke:none;" d="M250 199L251 200L250 199z"/>
  <path style="fill:#3e3f40; stroke:none;" d="M262 199L263 200L262 199z"/>
  <path style="fill:#acaeb0; stroke:none;" d="M126 200L127 201L126 200z"/>
  <path style="fill:#444546; stroke:none;" d="M139 200L140 201L139 200z"/>
  <path style="fill:#7f8082; stroke:none;" d="M218 200L219 201L218 200z"/>
  <path style="fill:#989a9b; stroke:none;" d="M125 201L126 202L125 201z"/>
  <path style="fill:#666768; stroke:none;" d="M138 201L139 202L138 201z"/>
  <path style="fill:#949697; stroke:none;" d="M263 201L264 202L263 201z"/>
  <path style="fill:#808283; stroke:none;" d="M124 202L125 203L124 202z"/>
  <path style="fill:#868889; stroke:none;" d="M137 202L138 203L137 202z"/>
  <path style="fill:#2b2b2c; stroke:none;" d="M219 202L220 203L219 202z"/>
  <path style="fill:#505152; stroke:none;" d="M264 202L265 203L264 202z"/>
  <path style="fill:#5e5f60; stroke:none;" d="M123 203L124 204L123 203z"/>
  <path style="fill:#9d9fa1; stroke:none;" d="M136 203L137 204L136 203z"/>
  <path style="fill:#6e6f71; stroke:none;" d="M220 203L221 204L220 203z"/>
  <path style="fill:#3e3f40; stroke:none;" d="M122 204L123 205L122 204z"/>
  <path style="fill:#a5a8a9; stroke:none;" d="M265 204L266 205L265 204z"/>
  <path style="fill:#2a2b2b; stroke:none;" d="M121 205L122 206L121 205z"/>
  <path style="fill:#616263; stroke:none;" d="M266 205L267 206L266 205z"/>
  <path style="fill:#5e5f60; stroke:none;" d="M222 206L223 207L222 206z"/>
  <path style="fill:#a1a3a5; stroke:none;" d="M120 207C122.717 210.11 128.104 209 132 209C128.304 207.449 123.951 207.941 120 207z"/>
  <path style="fill:#393a3a; stroke:none;" d="M133 207L134 208L133 207z"/>
  <path style="fill:#a0a3a4; stroke:none;" d="M223 207L224 208L223 207z"/>
  <path style="fill:#a1a3a5; stroke:none;" d="M267 207C261.854 208.521 256.339 208 251 208L224 208C226.816 209.622 230.694 209 234 209L257 209C259.245 209 268.293 210.132 267 207z"/>
  <path style="fill:#707273; stroke:none;" d="M119 208L120 209L119 208z"/>
  <path style="fill:#535455; stroke:none;" d="M132 208L133 209L132 208z"/>
  <path style="fill:#464748; stroke:none;" d="M268 208L269 209L268 208z"/>
  </svg>
