<svg xmlns="http://www.w3.org/2000/svg" width="246" height="198">
<path style="fill:#000000; stroke:none;" d="M0 0L0 198L246 198L246 0L0 0z"/>
<path style="fill:#aeafb0; stroke:none;" d="M58 36C62.2151 37.7687 67.4645 37 72 37L101 37C96.7849 35.2313 91.5355 36 87 36L58 36z"/>
<path style="fill:#343434; stroke:none;" d="M163 36L164 37L163 36z"/>
<path style="fill:#aeafb0; stroke:none;" d="M164 36C167.448 39.4485 178.142 35.085 183 38L182 39C183.195 37.7772 183.316 37.58 184 36L164 36z"/>
<path style="fill:#404141; stroke:none;" d="M184 36L185 37L184 36z"/>
<path style="fill:#353636; stroke:none;" d="M58 37L59 38L58 37z"/>
<path style="fill:#e7e9ea; stroke:none;" d="M59 37C68.7039 54.0316 82.8672 69.3209 94.6265 85C97.8739 89.3298 101.172 93.6264 104.366 97.9961C105.502 99.5509 107.374 101.517 107.404 103.576C107.472 108.318 98.512 115.557 95.5787 119C84.5007 132.003 71.0674 144.504 62 159C67.6957 159 76.7854 160.723 81.9105 157.972C86.7379 155.381 90.4758 149.084 94 145C102.338 135.338 110.605 125.611 119 116C124.537 127.119 133.926 137.07 141.373 147C144.039 150.554 147.058 156.572 151.3 158.397C154.871 159.932 160.189 159 164 159L191 159C187.143 149.876 179.208 142.01 173.424 134C166.373 124.235 159.1 114.636 151.873 105C147.815 99.5892 144.068 93.4982 139 89C148.446 79.1301 157.073 68.3444 166 58C171.707 51.3873 178.974 44.7618 183 37C177.461 37 169.346 35.4934 164.17 37.6034C159.898 39.3449 156.79 44.6536 153.845 48C146.363 56.5025 135.773 65.7049 131 76L129 76C124.768 65.9897 115.895 56.6957 109.373 48C106.807 44.5778 104.07 39.2586 99.9097 37.6034C96.185 36.1215 90.9403 37 87 37L59 37z"/>
<path style="fill:#636464; stroke:none;" d="M101 37L102 38L101 37z"/>
<path style="fill:#6c6d6d; stroke:none;" d="M59 38L60 39L59 38z"/>
<path style="fill:#2b2b2b; stroke:none;" d="M102 38L103 39L102 38z"/>
<path style="fill:#a6a7a8; stroke:none;" d="M60 39L61 40L60 39z"/>
<path style="fill:#b3b5b6; stroke:none;" d="M161 39L162 40L161 39z"/>
<path style="fill:#9fa1a1; stroke:none;" d="M103 40L104 41L103 40z"/>
<path style="fill:#959797; stroke:none;" d="M160 40L161 41L160 40z"/>
<path style="fill:#303031; stroke:none;" d="M61 41L62 42L61 41z"/>
<path style="fill:#5f6060; stroke:none;" d="M104 41L105 42L104 41z"/>
<path style="fill:#757676; stroke:none;" d="M159 41L160 42L159 41z"/>
<path style="fill:#666768; stroke:none;" d="M62 42L63 43L62 42z"/>
<path style="fill:#525253; stroke:none;" d="M158 42L159 43L158 42z"/>
<path style="fill:#454546; stroke:none;" d="M179 42L180 43L179 42z"/>
<path style="fill:#9fa1a1; stroke:none;" d="M63 43L64 44L63 43z"/>
<path style="fill:#393a3a; stroke:none;" d="M157 43L158 44L157 43z"/>
<path style="fill:#5f6060; stroke:none;" d="M178 43L179 44L178 43z"/>
<path style="fill:#999a9b; stroke:none;" d="M106 44L107 45L106 44z"/>
<path style="fill:#838485; stroke:none;" d="M177 44L178 45L177 44z"/>
<path style="fill:#2b2b2b; stroke:none;" d="M64 45L65 46L64 45z"/>
<path style="fill:#5b5b5c; stroke:none;" d="M107 45L108 46L107 45z"/>
<path style="fill:#a2a4a4; stroke:none;" d="M176 45L177 46L176 45z"/>
<path style="fill:#626363; stroke:none;" d="M65 46L66 47L65 46z"/>
<path style="fill:#b8b9ba; stroke:none;" d="M155 46L156 47L155 46M175 46L176 47L175 46z"/>
<path style="fill:#9fa1a1; stroke:none;" d="M66 47L67 48L66 47z"/>
<path style="fill:#a2a4a4; stroke:none;" d="M154 47L155 48L154 47z"/>
<path style="fill:#666768; stroke:none;" d="M82 48L83 49L82 48z"/>
<path style="fill:#3a3a3b; stroke:none;" d="M83 48C86.4324 49.4403 90.2998 49 94 49C90.5676 47.5597 86.7002 48 83 48z"/>
<path style="fill:#878889; stroke:none;" d="M94 48L95 49L94 48z"/>
<path style="fill:#959797; stroke:none;" d="M109 48L110 49L109 48z"/>
<path style="fill:#7d7e7f; stroke:none;" d="M153 48L154 49L153 48z"/>
<path style="fill:#2b2b2b; stroke:none;" d="M67 49L68 50L67 49z"/>
<path style="fill:#000000; stroke:none;" d="M83 49C99.3422 75.2425 120.574 99.2631 139.127 124C144.031 130.539 149.768 142.035 157.09 145.972C159.982 147.528 163.83 147 167 147C162.869 137.229 154.226 128.471 147.873 120C135.403 103.373 123.096 86.6258 110.627 70C106.363 64.315 100.549 52.3795 93.8264 49.6034C90.6768 48.3028 86.3454 49 83 49z"/>
<path style="fill:#b7b9b9; stroke:none;" d="M95 49L96 50L95 49z"/>
<path style="fill:#575858; stroke:none;" d="M110 49L111 50L110 49z"/>
<path style="fill:#585959; stroke:none;" d="M152 49L153 50L152 49z"/>
<path style="fill:#393a3a; stroke:none;" d="M173 49L174 50L173 49z"/>
<path style="fill:#5d5e5f; stroke:none;" d="M68 50L69 51L68 50z"/>
<path style="fill:#9fa1a1; stroke:none;" d="M83 50L84 51L83 50z"/>
<path style="fill:#3f3f3f; stroke:none;" d="M151 50L152 51L151 50z"/>
<path style="fill:#525253; stroke:none;" d="M172 50L173 51L172 50z"/>
<path style="fill:#999a9b; stroke:none;" d="M69 51L70 52L69 51z"/>
<path style="fill:#656566; stroke:none;" d="M84 51L85 52L84 51z"/>
<path style="fill:#414242; stroke:none;" d="M96 51L97 52L96 51z"/>
<path style="fill:#777878; stroke:none;" d="M171 51L172 52L171 51z"/>
<path style="fill:#303031; stroke:none;" d="M85 52L86 53L85 52z"/>
<path style="fill:#808181; stroke:none;" d="M97 52L98 53L97 52z"/>
<path style="fill:#8d8f8f; stroke:none;" d="M112 52L113 53L112 52z"/>
<path style="fill:#959797; stroke:none;" d="M170 52L171 53L170 52z"/>
<path style="fill:#b7b9b9; stroke:none;" d="M98 53L99 54L98 53z"/>
<path style="fill:#4e4f4f; stroke:none;" d="M113 53L114 54L113 53z"/>
<path style="fill:#b3b5b6; stroke:none;" d="M169 53L170 54L169 53z"/>
<path style="fill:#595a5a; stroke:none;" d="M71 54L72 55L71 54z"/>
<path style="fill:#a6a7a8; stroke:none;" d="M86 54L87 55L86 54z"/>
<path style="fill:#a8aaab; stroke:none;" d="M148 54L149 55L148 54z"/>
<path style="fill:#999a9b; stroke:none;" d="M72 55L73 56L72 55z"/>
<path style="fill:#696a6a; stroke:none;" d="M87 55L88 56L87 55z"/>
<path style="fill:#414242; stroke:none;" d="M99 55L100 56L99 55z"/>
<path style="fill:#88898a; stroke:none;" d="M147 55L148 56L147 55z"/>
<path style="fill:#303031; stroke:none;" d="M88 56L89 57L88 56z"/>
<path style="fill:#828484; stroke:none;" d="M100 56L101 57L100 56z"/>
<path style="fill:#8a8b8b; stroke:none;" d="M115 56L116 57L115 56z"/>
<path style="fill:#676869; stroke:none;" d="M146 56L147 57L146 56z"/>
<path style="fill:#2f3030; stroke:none;" d="M167 56L168 57L167 56z"/>
<path style="fill:#bcbebf; stroke:none;" d="M101 57L102 58L101 57z"/>
<path style="fill:#484848; stroke:none;" d="M116 57L117 58L116 57z"/>
<path style="fill:#454546; stroke:none;" d="M145 57L146 58L145 57z"/>
<path style="fill:#4b4c4c; stroke:none;" d="M166 57L167 58L166 57z"/>
<path style="fill:#4e4f4f; stroke:none;" d="M74 58L75 59L74 58z"/>
<path style="fill:#acaeae; stroke:none;" d="M89 58L90 59L89 58z"/>
<path style="fill:#2f3030; stroke:none;" d="M144 58L145 59L144 58z"/>
<path style="fill:#6b6c6c; stroke:none;" d="M165 58L166 59L165 58z"/>
<path style="fill:#8c8e8e; stroke:none;" d="M75 59L76 60L75 59z"/>
<path style="fill:#6f6f70; stroke:none;" d="M90 59L91 60L90 59z"/>
<path style="fill:#484848; stroke:none;" d="M102 59L103 60L102 59z"/>
<path style="fill:#bcbebf; stroke:none;" d="M117 59L118 60L117 59z"/>
<path style="fill:#8f9091; stroke:none;" d="M164 59L165 60L164 59z"/>
<path style="fill:#353636; stroke:none;" d="M91 60L92 61L91 60z"/>
<path style="fill:#858687; stroke:none;" d="M103 60L104 61L103 60M118 60L119 61L118 60z"/>
<path style="fill:#a8aaab; stroke:none;" d="M163 60L164 61L163 60z"/>
<path style="fill:#bcbebf; stroke:none;" d="M104 61L105 62L104 61z"/>
<path style="fill:#484848; stroke:none;" d="M119 61L120 62L119 61z"/>
<path style="fill:#aeafb0; stroke:none;" d="M142 61L143 62L142 61z"/>
<path style="fill:#4e4f4f; stroke:none;" d="M77 62L78 63L77 62z"/>
<path style="fill:#acaeae; stroke:none;" d="M92 62L93 63L92 62z"/>
<path style="fill:#959797; stroke:none;" d="M141 62L142 63L141 62z"/>
<path style="fill:#88898a; stroke:none;" d="M78 63L79 64L78 63z"/>
<path style="fill:#737475; stroke:none;" d="M93 63L94 64L93 63z"/>
<path style="fill:#484848; stroke:none;" d="M105 63L106 64L105 63z"/>
<path style="fill:#bcbebf; stroke:none;" d="M120 63L121 64L120 63z"/>
<path style="fill:#707172; stroke:none;" d="M140 63L141 64L140 63z"/>
<path style="fill:#bcbebf; stroke:none;" d="M79 64L80 65L79 64z"/>
<path style="fill:#3b3b3c; stroke:none;" d="M94 64L95 65L94 64z"/>
<path style="fill:#898a8b; stroke:none;" d="M106 64L107 65L106 64z"/>
<path style="fill:#828383; stroke:none;" d="M121 64L122 65L121 64z"/>
<path style="fill:#4b4c4c; stroke:none;" d="M139 64L140 65L139 64z"/>
<path style="fill:#3f3f3f; stroke:none;" d="M160 64L161 65L160 64z"/>
<path style="fill:#414242; stroke:none;" d="M122 65L123 66L122 65z"/>
<path style="fill:#343434; stroke:none;" d="M138 65L139 66L138 65z"/>
<path style="fill:#5f6060; stroke:none;" d="M159 65L160 66L159 65z"/>
<path style="fill:#484848; stroke:none;" d="M80 66L81 67L80 66z"/>
<path style="fill:#b2b3b4; stroke:none;" d="M95 66L96 67L95 66z"/>
<path style="fill:#7f8080; stroke:none;" d="M158 66L159 67L158 66z"/>
<path style="fill:#838485; stroke:none;" d="M81 67L82 68L81 67z"/>
<path style="fill:#787a7a; stroke:none;" d="M96 67L97 68L96 67z"/>
<path style="fill:#4e4f4f; stroke:none;" d="M108 67L109 68L108 67z"/>
<path style="fill:#b7b9b9; stroke:none;" d="M123 67L124 68L123 67z"/>
<path style="fill:#a2a4a4; stroke:none;" d="M157 67L158 68L157 67z"/>
<path style="fill:#b7b9b9; stroke:none;" d="M82 68L83 69L82 68z"/>
<path style="fill:#3b3b3c; stroke:none;" d="M97 68L98 69L97 68z"/>
<path style="fill:#8b8d8d; stroke:none;" d="M109 68L110 69L109 68z"/>
<path style="fill:#7d7e7f; stroke:none;" d="M124 68L125 69L124 68z"/>
<path style="fill:#b3b5b6; stroke:none;" d="M136 68L137 69L136 68z"/>
<path style="fill:#b8b9ba; stroke:none;" d="M156 68L157 69L156 68z"/>
<path style="fill:#414242; stroke:none;" d="M125 69L126 70L125 69z"/>
<path style="fill:#9c9d9e; stroke:none;" d="M135 69L136 70L135 69z"/>
<path style="fill:#414242; stroke:none;" d="M83 70L84 71L83 70z"/>
<path style="fill:#b7b9b9; stroke:none;" d="M98 70L99 71L98 70z"/>
<path style="fill:#797a7b; stroke:none;" d="M134 70L135 71L134 70z"/>
<path style="fill:#7f8080; stroke:none;" d="M84 71L85 72L84 71z"/>
<path style="fill:#7d7e7f; stroke:none;" d="M99 71L100 72L99 71z"/>
<path style="fill:#4e4f4f; stroke:none;" d="M111 71L112 72L111 71z"/>
<path style="fill:#b7b9b9; stroke:none;" d="M126 71L127 72L126 71z"/>
<path style="fill:#585959; stroke:none;" d="M133 71L134 72L133 71z"/>
<path style="fill:#393a3a; stroke:none;" d="M154 71L155 72L154 71z"/>
<path style="fill:#b7b9b9; stroke:none;" d="M85 72L86 73L85 72z"/>
<path style="fill:#414242; stroke:none;" d="M100 72L101 73L100 72z"/>
<path style="fill:#8e8f90; stroke:none;" d="M112 72L113 73L112 72z"/>
<path style="fill:#797a7b; stroke:none;" d="M127 72L128 73L127 72z"/>
<path style="fill:#393a3a; stroke:none;" d="M132 72L133 73L132 72z"/>
<path style="fill:#525253; stroke:none;" d="M153 72L154 73L153 72z"/>
<path style="fill:#3b3b3c; stroke:none;" d="M128 73L129 74L128 73z"/>
<path style="fill:#727374; stroke:none;" d="M152 73L153 74L152 73z"/>
<path style="fill:#414242; stroke:none;" d="M86 74L87 75L86 74z"/>
<path style="fill:#b7b9b9; stroke:none;" d="M101 74L102 75L101 74z"/>
<path style="fill:#959797; stroke:none;" d="M151 74L152 75L151 74z"/>
<path style="fill:#787979; stroke:none;" d="M87 75L88 76L87 75z"/>
<path style="fill:#828383; stroke:none;" d="M102 75L103 76L102 75z"/>
<path style="fill:#555656; stroke:none;" d="M114 75L115 76L114 75z"/>
<path style="fill:#b8b9ba; stroke:none;" d="M129.667 75.3333C129.222 75.7777 130.278 75.7222 130.333 75.6667C130.778 75.2222 129.722 75.2778 129.667 75.3333z"/>
<path style="fill:#abadad; stroke:none;" d="M150 75L151 76L150 75z"/>
<path style="fill:#b2b3b4; stroke:none;" d="M88 76L89 77L88 76z"/>
<path style="fill:#484848; stroke:none;" d="M103 76L104 77L103 76z"/>
<path style="fill:#999a9b; stroke:none;" d="M115 76L116 77L115 76z"/>
<path style="fill:#3b3b3c; stroke:none;" d="M89 78L90 79L89 78z"/>
<path style="fill:#bcbebf; stroke:none;" d="M104 78L105 79L104 78z"/>
<path style="fill:#2f3030; stroke:none;" d="M148 78L149 79L148 78z"/>
<path style="fill:#757676; stroke:none;" d="M90 79L91 80L90 79z"/>
<path style="fill:#878889; stroke:none;" d="M105 79L106 80L105 79z"/>
<path style="fill:#5a5a5b; stroke:none;" d="M117 79L118 80L117 79z"/>
<path style="fill:#454546; stroke:none;" d="M147 79L148 80L147 79z"/>
<path style="fill:#acaeae; stroke:none;" d="M91 80L92 81L91 80z"/>
<path style="fill:#484848; stroke:none;" d="M106 80L107 81L106 80z"/>
<path style="fill:#999a9b; stroke:none;" d="M118 80L119 81L118 80z"/>
<path style="fill:#666768; stroke:none;" d="M146 80L147 81L146 80z"/>
<path style="fill:#88898a; stroke:none;" d="M145 81L146 82L145 81z"/>
<path style="fill:#353636; stroke:none;" d="M92 82L93 83L92 82z"/>
<path style="fill:#a8aaab; stroke:none;" d="M144 82L145 83L144 82z"/>
<path style="fill:#707172; stroke:none;" d="M93 83L94 84L93 83z"/>
<path style="fill:#8c8e8e; stroke:none;" d="M108 83L109 84L108 83z"/>
<path style="fill:#5c5d5e; stroke:none;" d="M120 83L121 84L120 83z"/>
<path style="fill:#acaeae; stroke:none;" d="M94 84L95 85L94 84z"/>
<path style="fill:#4e4f4f; stroke:none;" d="M109 84L110 85L109 84z"/>
<path style="fill:#999a9b; stroke:none;" d="M121 84L122 85L121 84z"/>
<path style="fill:#353636; stroke:none;" d="M95 86L96 87L95 86z"/>
<path style="fill:#2b2b2b; stroke:none;" d="M122 86L123 87L122 86z"/>
<path style="fill:#3f3f3f; stroke:none;" d="M141 86L142 87L141 86z"/>
<path style="fill:#6c6d6d; stroke:none;" d="M96 87L97 88L96 87z"/>
<path style="fill:#999a9b; stroke:none;" d="M111 87L112 88L111 87z"/>
<path style="fill:#5f6060; stroke:none;" d="M123 87L124 88L123 87z"/>
<path style="fill:#585959; stroke:none;" d="M140 87L141 88L140 87z"/>
<path style="fill:#a4a5a6; stroke:none;" d="M97 88L98 89L97 88z"/>
<path style="fill:#585959; stroke:none;" d="M112 88L113 89L112 88z"/>
<path style="fill:#9d9e9f; stroke:none;" d="M124 88L125 89L124 88z"/>
<path style="fill:#a8aaab; stroke:none;" d="M139 88L140 89L139 88z"/>
<path style="fill:#3b3b3c; stroke:none;" d="M140 89L141 90L140 89z"/>
<path style="fill:#303031; stroke:none;" d="M98 90L99 91L98 90z"/>
<path style="fill:#2b2b2b; stroke:none;" d="M125 90L126 91L125 90z"/>
<path style="fill:#676869; stroke:none;" d="M99 91L100 92L99 91z"/>
<path style="fill:#999a9b; stroke:none;" d="M114 91L115 92L114 91z"/>
<path style="fill:#626363; stroke:none;" d="M126 91L127 92L126 91z"/>
<path style="fill:#b2b3b4; stroke:none;" d="M141 91L142 92L141 91z"/>
<path style="fill:#a6a7a8; stroke:none;" d="M100 92L101 93L100 92z"/>
<path style="fill:#5d5e5f; stroke:none;" d="M115 92L116 93L115 92z"/>
<path style="fill:#9fa1a1; stroke:none;" d="M127 92L128 93L127 92z"/>
<path style="fill:#767777; stroke:none;" d="M142 92L143 93L142 92z"/>
<path style="fill:#2b2b2b; stroke:none;" d="M116 93L117 94L116 93z"/>
<path style="fill:#3b3b3c; stroke:none;" d="M143 93L144 94L143 93z"/>
<path style="fill:#2b2b2b; stroke:none;" d="M101 94L102 95L101 94M128 94L129 95L128 94z"/>
<path style="fill:#626363; stroke:none;" d="M102 95L103 96L102 95z"/>
<path style="fill:#9fa1a1; stroke:none;" d="M117 95L118 96L117 95z"/>
<path style="fill:#656667; stroke:none;" d="M129 95L130 96L129 95z"/>
<path style="fill:#b2b3b4; stroke:none;" d="M144 95L145 96L144 95z"/>
<path style="fill:#9fa1a1; stroke:none;" d="M103 96L104 97L103 96z"/>
<path style="fill:#636464; stroke:none;" d="M118 96L119 97L118 96z"/>
<path style="fill:#a6a7a8; stroke:none;" d="M130 96L131 97L130 96z"/>
<path style="fill:#727374; stroke:none;" d="M145 96L146 97L145 96z"/>
<path style="fill:#2b2b2b; stroke:none;" d="M119 97L120 98L119 97z"/>
<path style="fill:#353636; stroke:none;" d="M146 97L147 98L146 97z"/>
<path style="fill:#2b2b2b; stroke:none;" d="M104 98L105 99L104 98z"/>
<path style="fill:#303031; stroke:none;" d="M131 98L132 99L131 98z"/>
<path style="fill:#5d5e5f; stroke:none;" d="M105 99L106 100L105 99z"/>
<path style="fill:#a6a7a8; stroke:none;" d="M120 99L121 100L120 99z"/>
<path style="fill:#68696a; stroke:none;" d="M132 99L133 100L132 99z"/>
<path style="fill:#acaeae; stroke:none;" d="M147 99L148 100L147 99z"/>
<path style="fill:#999a9b; stroke:none;" d="M106 100L107 101L106 100z"/>
<path style="fill:#676869; stroke:none;" d="M121 100L122 101L121 100z"/>
<path style="fill:#a6a7a8; stroke:none;" d="M133 100L134 101L133 100z"/>
<path style="fill:#6f6f70; stroke:none;" d="M148 100L149 101L148 100z"/>
<path style="fill:#303031; stroke:none;" d="M122 101L123 102L122 101z"/>
<path style="fill:#353636; stroke:none;" d="M149 101L150 102L149 101z"/>
<path style="fill:#303031; stroke:none;" d="M134 102L135 103L134 102z"/>
<path style="fill:#646565; stroke:none;" d="M108 103L109 104L108 103z"/>
<path style="fill:#a4a5a6; stroke:none;" d="M123 103L124 104L123 103z"/>
<path style="fill:#6a6b6b; stroke:none;" d="M135 103L136 104L135 103z"/>
<path style="fill:#a4a5a6; stroke:none;" d="M150 103L151 104L150 103z"/>
<path style="fill:#6d6e6e; stroke:none;" d="M124 104L125 105L124 104z"/>
<path style="fill:#a6a7a8; stroke:none;" d="M136 104L137 105L136 104z"/>
<path style="fill:#6a6b6b; stroke:none;" d="M151 104L152 105L151 104z"/>
<path style="fill:#a2a4a4; stroke:none;" d="M107 105L108 106L107 105z"/>
<path style="fill:#353636; stroke:none;" d="M125 105L126 106L125 105z"/>
<path style="fill:#303031; stroke:none;" d="M152 105L153 106L152 105z"/>
<path style="fill:#828484; stroke:none;" d="M106 106L107 107L106 106z"/>
<path style="fill:#353636; stroke:none;" d="M137 106L138 107L137 106z"/>
<path style="fill:#5f6060; stroke:none;" d="M105 107L106 108L105 107z"/>
<path style="fill:#acaeae; stroke:none;" d="M126 107L127 108L126 107z"/>
<path style="fill:#6e6f6f; stroke:none;" d="M138 107L139 108L138 107z"/>
<path style="fill:#a6a7a8; stroke:none;" d="M153 107L154 108L153 107z"/>
<path style="fill:#454546; stroke:none;" d="M104 108L105 109L104 108z"/>
<path style="fill:#717273; stroke:none;" d="M127 108L128 109L127 108z"/>
<path style="fill:#acaeae; stroke:none;" d="M139 108L140 109L139 108z"/>
<path style="fill:#666768; stroke:none;" d="M154 108L155 109L154 108z"/>
<path style="fill:#353636; stroke:none;" d="M128 109L129 110L128 109z"/>
<path style="fill:#2b2b2b; stroke:none;" d="M155 109L156 110L155 109z"/>
<path style="fill:#353636; stroke:none;" d="M140 110L141 111L140 110z"/>
<path style="fill:#b2b3b4; stroke:none;" d="M129 111L130 112L129 111z"/>
<path style="fill:#717273; stroke:none;" d="M141 111L142 112L141 111z"/>
<path style="fill:#9fa1a1; stroke:none;" d="M156 111L157 112L156 111z"/>
<path style="fill:#a8aaab; stroke:none;" d="M101 112L102 113L101 112z"/>
<path style="fill:#777878; stroke:none;" d="M130 112L131 113L130 112z"/>
<path style="fill:#acaeae; stroke:none;" d="M142 112L143 113L142 112z"/>
<path style="fill:#636464; stroke:none;" d="M157 112L158 113L157 112z"/>
<path style="fill:#8f9091; stroke:none;" d="M100 113L101 114L100 113z"/>
<path style="fill:#3b3b3c; stroke:none;" d="M131 113L132 114L131 113z"/>
<path style="fill:#2b2b2b; stroke:none;" d="M158 113L159 114L158 113z"/>
<path style="fill:#6c6d6d; stroke:none;" d="M99 114L100 115L99 114z"/>
<path style="fill:#353636; stroke:none;" d="M143 114L144 115L143 114z"/>
<path style="fill:#4b4c4c; stroke:none;" d="M98 115L99 116L98 115z"/>
<path style="fill:#b2b3b4; stroke:none;" d="M132 115L133 116L132 115z"/>
<path style="fill:#747575; stroke:none;" d="M144 115L145 116L144 115z"/>
<path style="fill:#9fa1a1; stroke:none;" d="M159 115L160 116L159 115z"/>
<path style="fill:#343434; stroke:none;" d="M97 116L98 117L97 116z"/>
<path style="fill:#b8b9ba; stroke:none;" d="M118 116L119 117L118 116z"/>
<path style="fill:#7b7c7d; stroke:none;" d="M133 116L134 117L133 116z"/>
<path style="fill:#aeafb0; stroke:none;" d="M145 116L146 117L145 116z"/>
<path style="fill:#5e5f5f; stroke:none;" d="M160 116L161 117L160 116z"/>
<path style="fill:#8f9091; stroke:none;" d="M117 117L118 118L117 117z"/>
<path style="fill:#b2b3b4; stroke:none;" d="M119 117L120 118L119 117z"/>
<path style="fill:#414242; stroke:none;" d="M134 117L135 118L134 117z"/>
<path style="fill:#aeafb0; stroke:none;" d="M116 118L117 119L116 118z"/>
<path style="fill:#3b3b3c; stroke:none;" d="M146 118L147 119L146 118z"/>
<path style="fill:#b3b5b6; stroke:none;" d="M95 119L96 120L95 119z"/>
<path style="fill:#3b3b3c; stroke:none;" d="M120 119L121 120L120 119z"/>
<path style="fill:#b7b9b9; stroke:none;" d="M135 119L136 120L135 119z"/>
<path style="fill:#777878; stroke:none;" d="M147 119L148 120L147 119z"/>
<path style="fill:#999a9b; stroke:none;" d="M162 119L163 120L162 119z"/>
<path style="fill:#959797; stroke:none;" d="M94 120L95 121L94 120z"/>
<path style="fill:#777878; stroke:none;" d="M121 120L122 121L121 120z"/>
<path style="fill:#818282; stroke:none;" d="M136 120L137 121L136 120z"/>
<path style="fill:#b2b3b4; stroke:none;" d="M148 120L149 121L148 120z"/>
<path style="fill:#5b5b5c; stroke:none;" d="M163 120L164 121L163 120z"/>
<path style="fill:#757676; stroke:none;" d="M93 121L94 122L93 121z"/>
<path style="fill:#b2b3b4; stroke:none;" d="M122 121L123 122L122 121z"/>
<path style="fill:#484848; stroke:none;" d="M137 121L138 122L137 121z"/>
<path style="fill:#525253; stroke:none;" d="M92 122L93 123L92 122z"/>
<path style="fill:#454546; stroke:none;" d="M113 122L114 123L113 122z"/>
<path style="fill:#3b3b3c; stroke:none;" d="M149 122L150 123L149 122z"/>
<path style="fill:#393a3a; stroke:none;" d="M91 123L92 124L91 123z"/>
<path style="fill:#656566; stroke:none;" d="M112 123L113 124L112 123z"/>
<path style="fill:#3b3b3c; stroke:none;" d="M123 123L124 124L123 123z"/>
<path style="fill:#bcbebf; stroke:none;" d="M138 123L139 124L138 123z"/>
<path style="fill:#797a7b; stroke:none;" d="M150 123L151 124L150 123z"/>
<path style="fill:#999a9b; stroke:none;" d="M165 123L166 124L165 123z"/>
<path style="fill:#88898a; stroke:none;" d="M111 124L112 125L111 124z"/>
<path style="fill:#747575; stroke:none;" d="M124 124L125 125L124 124z"/>
<path style="fill:#858687; stroke:none;" d="M139 124L140 125L139 124z"/>
<path style="fill:#b7b9b9; stroke:none;" d="M151 124L152 125L151 124z"/>
<path style="fill:#575858; stroke:none;" d="M166 124L167 125L166 124z"/>
<path style="fill:#a2a4a4; stroke:none;" d="M110 125L111 126L110 125z"/>
<path style="fill:#acaeae; stroke:none;" d="M125 125L126 126L125 125z"/>
<path style="fill:#484848; stroke:none;" d="M140 125L141 126L140 125z"/>
<path style="fill:#b8b9ba; stroke:none;" d="M89 126L90 127L89 126z"/>
<path style="fill:#414242; stroke:none;" d="M152 126L153 127L152 126z"/>
<path style="fill:#9c9d9e; stroke:none;" d="M88 127L89 128L88 127z"/>
<path style="fill:#353636; stroke:none;" d="M126 127L127 128L126 127z"/>
<path style="fill:#bcbebf; stroke:none;" d="M141 127L142 128L141 127z"/>
<path style="fill:#7d7e7f; stroke:none;" d="M153 127L154 128L153 127z"/>
<path style="fill:#8e8f90; stroke:none;" d="M168 127L169 128L168 127z"/>
<path style="fill:#7e7f80; stroke:none;" d="M87 128L88 129L87 128z"/>
<path style="fill:#717273; stroke:none;" d="M127 128L128 129L127 128z"/>
<path style="fill:#8a8b8b; stroke:none;" d="M142 128L143 129L142 128z"/>
<path style="fill:#b7b9b9; stroke:none;" d="M154 128L155 129L154 128z"/>
<path style="fill:#4e4f4f; stroke:none;" d="M169 128L170 129L169 128z"/>
<path style="fill:#585959; stroke:none;" d="M86 129L87 130L86 129z"/>
<path style="fill:#3f3f3f; stroke:none;" d="M107 129L108 130L107 129z"/>
<path style="fill:#acaeae; stroke:none;" d="M128 129L129 130L128 129z"/>
<path style="fill:#4e4f4f; stroke:none;" d="M143 129L144 130L143 129z"/>
<path style="fill:#3f3f3f; stroke:none;" d="M85 130L86 131L85 130z"/>
<path style="fill:#585959; stroke:none;" d="M106 130L107 131L106 130z"/>
<path style="fill:#414242; stroke:none;" d="M155 130L156 131L155 130z"/>
<path style="fill:#7c7d7e; stroke:none;" d="M105 131L106 132L105 131z"/>
<path style="fill:#353636; stroke:none;" d="M129 131L130 132L129 131z"/>
<path style="fill:#808181; stroke:none;" d="M156 131L157 132L156 131z"/>
<path style="fill:#8a8b8b; stroke:none;" d="M171 131L172 132L171 131z"/>
<path style="fill:#9c9d9e; stroke:none;" d="M104 132L105 133L104 132z"/>
<path style="fill:#6e6f6f; stroke:none;" d="M130 132L131 133L130 132z"/>
<path style="fill:#8f9091; stroke:none;" d="M145 132L146 133L145 132z"/>
<path style="fill:#b7b9b9; stroke:none;" d="M157 132L158 133L157 132z"/>
<path style="fill:#484848; stroke:none;" d="M172 132L173 133L172 132z"/>
<path style="fill:#b8b9ba; stroke:none;" d="M103 133L104 134L103 133z"/>
<path style="fill:#acaeae; stroke:none;" d="M131 133L132 134L131 133z"/>
<path style="fill:#555656; stroke:none;" d="M146 133L147 134L146 133z"/>
<path style="fill:#a8aaab; stroke:none;" d="M82 134L83 135L82 134z"/>
<path style="fill:#414242; stroke:none;" d="M158 134L159 135L158 134z"/>
<path style="fill:#bcbebf; stroke:none;" d="M173 134L174 135L173 134z"/>
<path style="fill:#88898a; stroke:none;" d="M81 135L82 136L81 135z"/>
<path style="fill:#303031; stroke:none;" d="M132 135L133 136L132 135z"/>
<path style="fill:#828484; stroke:none;" d="M159 135L160 136L159 135z"/>
<path style="fill:#868788; stroke:none;" d="M174 135L175 136L174 135z"/>
<path style="fill:#676869; stroke:none;" d="M80 136L81 137L80 136z"/>
<path style="fill:#393a3a; stroke:none;" d="M101 136L102 137L101 136z"/>
<path style="fill:#6b6c6c; stroke:none;" d="M133 136L134 137L133 136z"/>
<path style="fill:#999a9b; stroke:none;" d="M148 136L149 137L148 136z"/>
<path style="fill:#bcbebf; stroke:none;" d="M160 136L161 137L160 136z"/>
<path style="fill:#484848; stroke:none;" d="M175 136L176 137L175 136z"/>
<path style="fill:#454546; stroke:none;" d="M79 137L80 138L79 137z"/>
<path style="fill:#525253; stroke:none;" d="M100 137L101 138L100 137z"/>
<path style="fill:#a6a7a8; stroke:none;" d="M134 137L135 138L134 137z"/>
<path style="fill:#5b5c5d; stroke:none;" d="M149 137L150 138L149 137z"/>
<path style="fill:#2f3030; stroke:none;" d="M78 138L79 139L78 138z"/>
<path style="fill:#747575; stroke:none;" d="M99 138L100 139L99 138z"/>
<path style="fill:#484848; stroke:none;" d="M161 138L162 139L161 138z"/>
<path style="fill:#bcbebf; stroke:none;" d="M176 138L177 139L176 138z"/>
<path style="fill:#959797; stroke:none;" d="M98 139L99 140L98 139z"/>
<path style="fill:#303031; stroke:none;" d="M135 139L136 140L135 139z"/>
<path style="fill:#858687; stroke:none;" d="M162 139L163 140L162 139z"/>
<path style="fill:#828484; stroke:none;" d="M177 139L178 140L177 139z"/>
<path style="fill:#b3b5b6; stroke:none;" d="M97 140L98 141L97 140z"/>
<path style="fill:#68696a; stroke:none;" d="M136 140L137 141L136 140z"/>
<path style="fill:#9fa1a1; stroke:none;" d="M151 140L152 141L151 140z"/>
<path style="fill:#bcbebf; stroke:none;" d="M163 140L164 141L163 140z"/>
<path style="fill:#414242; stroke:none;" d="M178 140L179 141L178 140z"/>
<path style="fill:#aeafb0; stroke:none;" d="M76 141L77 142L76 141z"/>
<path style="fill:#a6a7a8; stroke:none;" d="M137 141L138 142L137 141z"/>
<path style="fill:#606161; stroke:none;" d="M152 141L153 142L152 141z"/>
<path style="fill:#959797; stroke:none;" d="M75 142L76 143L75 142z"/>
<path style="fill:#2b2b2b; stroke:none;" d="M153 142L154 143L153 142z"/>
<path style="fill:#484848; stroke:none;" d="M164 142L165 143L164 142z"/>
<path style="fill:#b7b9b9; stroke:none;" d="M179 142L180 143L179 142z"/>
<path style="fill:#707172; stroke:none;" d="M74 143L75 144L74 143z"/>
<path style="fill:#2f3030; stroke:none;" d="M95 143L96 144L95 143z"/>
<path style="fill:#303031; stroke:none;" d="M138 143L139 144L138 143z"/>
<path style="fill:#898a8b; stroke:none;" d="M165 143L166 144L165 143z"/>
<path style="fill:#7f8080; stroke:none;" d="M180 143L181 144L180 143z"/>
<path style="fill:#4b4c4c; stroke:none;" d="M73 144L74 145L73 144M94 144L95 145L94 144z"/>
<path style="fill:#656566; stroke:none;" d="M139 144L140 145L139 144z"/>
<path style="fill:#9fa1a1; stroke:none;" d="M154 144L155 145L154 144z"/>
<path style="fill:#414242; stroke:none;" d="M181 144L182 145L181 144z"/>
<path style="fill:#343434; stroke:none;" d="M72 145L73 146L72 145z"/>
<path style="fill:#6b6c6c; stroke:none;" d="M93 145L94 146L93 145z"/>
<path style="fill:#9fa1a1; stroke:none;" d="M140 145L141 146L140 145z"/>
<path style="fill:#656667; stroke:none;" d="M155 145L156 146L155 145z"/>
<path style="fill:#8f9091; stroke:none;" d="M92 146L93 147L92 146z"/>
<path style="fill:#303031; stroke:none;" d="M156 146L157 147L156 146z"/>
<path style="fill:#4e4f4f; stroke:none;" d="M167 146L168 147L167 146z"/>
<path style="fill:#b7b9b9; stroke:none;" d="M182 146L183 147L182 146z"/>
<path style="fill:#a8a9aa; stroke:none;" d="M91 147L92 148L91 147z"/>
<path style="fill:#2d2e2e; stroke:none;" d="M141 147L142 148L141 147z"/>
<path style="fill:#aeafb0; stroke:none;" d="M157 147C160.432 148.44 164.3 148 168 148C164.568 146.56 160.7 147 157 147z"/>
<path style="fill:#797a7b; stroke:none;" d="M183 147L184 148L183 147z"/>
<path style="fill:#b3b5b6; stroke:none;" d="M70 148L71 149L70 148z"/>
<path style="fill:#626363; stroke:none;" d="M142 148L143 149L142 148z"/>
<path style="fill:#3b3b3c; stroke:none;" d="M184 148L185 149L184 148z"/>
<path style="fill:#9c9d9e; stroke:none;" d="M69 149L70 150L69 149z"/>
<path style="fill:#9fa1a1; stroke:none;" d="M143 149L144 150L143 149z"/>
<path style="fill:#797a7b; stroke:none;" d="M68 150L69 151L68 150z"/>
<path style="fill:#b2b3b4; stroke:none;" d="M185 150L186 151L185 150z"/>
<path style="fill:#585959; stroke:none;" d="M67 151L68 152L67 151z"/>
<path style="fill:#454546; stroke:none;" d="M88 151L89 152L88 151z"/>
<path style="fill:#2b2b2b; stroke:none;" d="M144 151L145 152L144 151z"/>
<path style="fill:#777878; stroke:none;" d="M186 151L187 152L186 151z"/>
<path style="fill:#393a3a; stroke:none;" d="M66 152L67 153L66 152z"/>
<path style="fill:#5f6060; stroke:none;" d="M87 152L88 153L87 152M145 152L146 153L145 152z"/>
<path style="fill:#3b3b3c; stroke:none;" d="M187 152L188 153L187 152z"/>
<path style="fill:#828484; stroke:none;" d="M86 153L87 154L86 153z"/>
<path style="fill:#999a9b; stroke:none;" d="M146 153L147 154L146 153z"/>
<path style="fill:#a2a4a4; stroke:none;" d="M85 154L86 155L85 154z"/>
<path style="fill:#b2b3b4; stroke:none;" d="M188 154L189 155L188 154z"/>
<path style="fill:#b8b9ba; stroke:none;" d="M64 155L65 156L64 155z"/>
<path style="fill:#737475; stroke:none;" d="M189 155L190 156L189 155z"/>
<path style="fill:#a2a4a4; stroke:none;" d="M63 156L64 157L63 156z"/>
<path style="fill:#5b5c5d; stroke:none;" d="M148 156L149 157L148 156z"/>
<path style="fill:#353636; stroke:none;" d="M190 156L191 157L190 156z"/>
<path style="fill:#828383; stroke:none;" d="M62 157L63 158L62 157z"/>
<path style="fill:#999a9b; stroke:none;" d="M149 157L150 158L149 157z"/>
<path style="fill:#5f6060; stroke:none;" d="M61 158L62 159L61 158z"/>
<path style="fill:#393a3a; stroke:none;" d="M82 158L83 159L82 158z"/>
<path style="fill:#aeafb0; stroke:none;" d="M191 158C179.078 161.524 163.426 159 151 159C153.816 160.622 157.694 160 161 160L182 160C184.174 160 192.276 161.09 191 158M61 159C66.7147 161.398 74.8308 160 81 160C75.2853 157.602 67.1692 159 61 159z"/>
<path style="fill:#565757; stroke:none;" d="M81 159L82 160L81 159z"/>
<path style="fill:#424343; stroke:none;" d="M192 159L193 160L192 159z"/>
</svg>
